<svg xmlns="http://www.w3.org/2000/svg" viewBox="0 0 400 400" width="400" height="400" style="background:#f0f0f0">

      
  <rect x="145" y="145" width="110" height="110" fill="#6b6b6b"/>
  <rect x="0" y="145" width="400" height="110" fill="#6b6b6b"/>
<line x1="0" y1="200" x2="400" y2="200" stroke="#ffffff" stroke-width="2" stroke-dasharray="18,12"/>
  <rect x="145" y="0" width="110" height="400" fill="#6b6b6b"/>
<line x1="200" y1="0" x2="200" y2="400" stroke="#ffffff" stroke-width="2" stroke-dasharray="18,12"/>
  
      <line x1="145" y1="200" x2="200" y2="200" stroke="#ffffff" stroke-width="4" stroke-linecap="round"/>
      <!-- Your car: coming from south, turning left (east→west) -->
      <g transform="rotate(0,185,230)">
  <rect x="174" y="212" width="22" height="36" rx="5" ry="5" fill="#e63946" />
  <rect x="177" y="216" width="16" height="7" rx="2" fill="rgba(255,255,255,0.4)" />
</g>
      <line x1="185" y1="210" x2="130.21989980045453" y2="176.28916910797201" stroke="#e63946" stroke-width="2.5" stroke-linecap="round"/>
<polygon points="120,170 133.36448435444055,171.17921920774475 127.07531524646852,181.39911900819928" fill="#e63946"/>
      <!-- Cyclist: coming from east going west (straight) -->
      <g transform="rotate(270,290,182)">
  <circle cx="290" cy="170" r="6" fill="#2a9d8f"/>
  <rect x="282" y="176" width="16" height="24" rx="4" fill="#2a9d8f" opacity="0.85"/>
</g>
      <line x1="280" y1="182" x2="132" y2="182" stroke="#2a9d8f" stroke-width="2" stroke-linecap="round"/>
<polygon points="120,182 132,176 132,188" fill="#2a9d8f"/>
      <!-- Priority marker on cyclist -->
      <circle cx="290" cy="160" r="14" fill="#f4d35e" opacity="0.9"/>
      <text x="290" y="165" font-family="Arial,sans-serif" font-size="16" fill="#1a1a1a" text-anchor="middle" font-weight="bold">✓</text>
      <text x="185" y="280" font-family="Arial,sans-serif" font-size="12" fill="#e63946" text-anchor="middle" font-weight="bold">DU</text>
      <text x="300" y="182" font-family="Arial,sans-serif" font-size="11" fill="#2a9d8f" text-anchor="start" font-weight="bold">Cyklist</text>
    
</svg>
