<svg xmlns="http://www.w3.org/2000/svg" viewBox="0 0 400 400" width="400" height="400" style="background:#f0f0f0">

      
  <rect x="145" y="145" width="110" height="110" fill="#6b6b6b"/>
  <rect x="0" y="145" width="400" height="110" fill="#6b6b6b"/>
<line x1="0" y1="200" x2="400" y2="200" stroke="#ffffff" stroke-width="2" stroke-dasharray="18,12"/>
  <rect x="145" y="0" width="110" height="400" fill="#6b6b6b"/>
<line x1="200" y1="0" x2="200" y2="400" stroke="#ffffff" stroke-width="2" stroke-dasharray="18,12"/>
  
      <!-- Cycle lane: right side of road -->
      <rect x="255" y="0" width="20" height="145" fill="#3a7d44" opacity="0.5"/>
      <rect x="255" y="255" width="20" height="200" fill="#3a7d44" opacity="0.5"/>
      <text x="265" y="30" font-family="Arial,sans-serif" font-size="14" fill="#2a9d8f" text-anchor="middle" font-weight="bold">🚲</text>
      <!-- Your car: from south, turning right -->
      <g transform="rotate(0,220,240)">
  <rect x="209" y="222" width="22" height="36" rx="5" ry="5" fill="#e63946" />
  <rect x="212" y="226" width="16" height="7" rx="2" fill="rgba(255,255,255,0.4)" />
</g>
      <line x1="220" y1="220" x2="253.34359764529725" y2="169.98460353205414" stroke="#e63946" stroke-width="2.5" stroke-linecap="round"/>
<polygon points="260,160 258.3358994113243,173.31280470940553 248.3512958792702,166.65640235470275" fill="#e63946"/>
      <!-- Cyclist: straight from south (in cycle lane) -->
      <g transform="rotate(0,265,300)">
  <circle cx="265" cy="288" r="6" fill="#2a9d8f"/>
  <rect x="257" y="294" width="16" height="24" rx="4" fill="#2a9d8f" opacity="0.85"/>
</g>
      <line x1="265" y1="280" x2="265" y2="132" stroke="#2a9d8f" stroke-width="2" stroke-linecap="round"/>
<polygon points="265,120 271,132 259,132" fill="#2a9d8f"/>
      <circle cx="285" cy="300" r="14" fill="#f4d35e" opacity="0.9"/>
      <text x="285" y="305" font-family="Arial,sans-serif" font-size="16" fill="#1a1a1a" text-anchor="middle" font-weight="bold">✓</text>
      <text x="220" y="280" font-family="Arial,sans-serif" font-size="12" fill="#e63946" text-anchor="middle" font-weight="bold">DU</text>
    
</svg>
