<svg xmlns="http://www.w3.org/2000/svg" viewBox="0 0 400 400" width="400" height="400" style="background:#f0f0f0">

      
  <rect x="145" y="145" width="110" height="110" fill="#6b6b6b"/>
  <rect x="0" y="145" width="400" height="110" fill="#6b6b6b"/>
<line x1="0" y1="200" x2="400" y2="200" stroke="#ffffff" stroke-width="2" stroke-dasharray="18,12"/>
  <rect x="145" y="0" width="110" height="400" fill="#6b6b6b"/>
<line x1="200" y1="0" x2="200" y2="400" stroke="#ffffff" stroke-width="2" stroke-dasharray="18,12"/>
  
      <!-- Zebra crossing north of intersection -->
      <rect x="150" y="130" width="11.11111111111111" height="20" fill="white" opacity="0.9"/><rect x="172.22222222222223" y="130" width="11.11111111111111" height="20" fill="white" opacity="0.9"/><rect x="194.44444444444446" y="130" width="11.11111111111111" height="20" fill="white" opacity="0.9"/><rect x="216.66666666666666" y="130" width="11.11111111111111" height="20" fill="white" opacity="0.9"/><rect x="238.88888888888889" y="130" width="11.11111111111111" height="20" fill="white" opacity="0.9"/>
      <!-- Traffic light (green) -->
      <rect x="115" y="150" width="20" height="50" rx="4" fill="#333"/>
      <circle cx="125" cy="165" r="7" fill="#22c55e"/>
      <!-- Your car: turning right/left across crosswalk -->
      <g transform="rotate(0,180,240)">
  <rect x="169" y="222" width="22" height="36" rx="5" ry="5" fill="#e63946" />
  <rect x="172" y="226" width="16" height="7" rx="2" fill="rgba(255,255,255,0.4)" />
</g>
      <line x1="180" y1="218" x2="180" y2="137" stroke="#e63946" stroke-width="2.5" stroke-linecap="round"/>
<polygon points="180,125 186,137 174,137" fill="#e63946"/>
      <!-- Pedestrians on crosswalk -->
      <circle cx="180" cy="140" r="5" fill="#f4a261"/>
<line x1="180" y1="145" x2="180" y2="160" stroke="#f4a261" stroke-width="3"/>
<line x1="173" y1="152" x2="187" y2="152" stroke="#f4a261" stroke-width="3"/>
<line x1="180" y1="160" x2="174" y2="172" stroke="#f4a261" stroke-width="3"/>
<line x1="180" y1="160" x2="186" y2="172" stroke="#f4a261" stroke-width="3"/>
      <circle cx="210" cy="140" r="5" fill="#f4a261"/>
<line x1="210" y1="145" x2="210" y2="160" stroke="#f4a261" stroke-width="3"/>
<line x1="203" y1="152" x2="217" y2="152" stroke="#f4a261" stroke-width="3"/>
<line x1="210" y1="160" x2="204" y2="172" stroke="#f4a261" stroke-width="3"/>
<line x1="210" y1="160" x2="216" y2="172" stroke="#f4a261" stroke-width="3"/>
      <circle cx="230" cy="130" r="14" fill="#f4d35e" opacity="0.9"/>
      <text x="230" y="135" font-family="Arial,sans-serif" font-size="16" fill="#1a1a1a" text-anchor="middle" font-weight="bold">✓</text>
      <text x="180" y="280" font-family="Arial,sans-serif" font-size="12" fill="#e63946" text-anchor="middle" font-weight="bold">DU</text>
    
</svg>
