<svg xmlns="http://www.w3.org/2000/svg" viewBox="0 0 400 400" width="400" height="400" style="background:#f0f0f0">

      <!-- Road -->
      <rect x="80" y="170" width="240" height="60" fill="#6b6b6b"/>
      <!-- Bridge narrowing -->
      <rect x="130" y="180" width="140" height="40" fill="#8a8a8a" rx="2"/>
      <!-- Water under bridge -->
      <rect x="130" y="220" width="140" height="30" fill="#1d7dc1" opacity="0.3" rx="2"/>
      <text x="200" y="238" font-family="Arial,sans-serif" font-size="11" fill="#1d7dc1" text-anchor="middle" font-weight="bold">〰 Vatten 〰</text>
      <!-- Waiting car (you) from left -->
      <g transform="rotate(90,95,200)">
  <rect x="84" y="182" width="22" height="36" rx="5" ry="5" fill="#e63946" />
  <rect x="87" y="186" width="16" height="7" rx="2" fill="rgba(255,255,255,0.4)" />
</g>
      <!-- Oncoming car on bridge -->
      <g transform="rotate(270,240,200)">
  <rect x="229" y="182" width="22" height="36" rx="5" ry="5" fill="#1d7dc1" />
  <rect x="232" y="186" width="16" height="7" rx="2" fill="rgba(255,255,255,0.4)" />
</g>
      <line x1="220" y1="200" x2="132" y2="200" stroke="#1d7dc1" stroke-width="2.5" stroke-linecap="round"/>
<polygon points="120,200 132,194 132,206" fill="#1d7dc1"/>
      <!-- Wait sign for you -->
      <polygon points="60,188.3956 50,205.7156 70,205.7156" fill="white" stroke="red" stroke-width="2.5"/>
<text x="60" y="204" font-family="Arial" font-size="11" fill="red" text-anchor="middle" font-weight="bold">▽</text>
      <text x="95" y="240" font-family="Arial,sans-serif" font-size="12" fill="#e63946" text-anchor="middle" font-weight="bold">DU</text>
    
</svg>
