<svg xmlns="http://www.w3.org/2000/svg" viewBox="0 0 400 400" width="400" height="400" style="background:#f0f0f0">

      <!-- Road -->
      <rect x="0" y="170" width="400" height="100" fill="#6b6b6b"/>
<line x1="0" y1="220" x2="400" y2="220" stroke="#ffffff" stroke-width="2" stroke-dasharray="18,12"/>
      <!-- Zebra crossing -->
      <rect x="240" y="210" width="8.88888888888889" height="20" fill="white" opacity="0.9"/><rect x="257.77777777777777" y="210" width="8.88888888888889" height="20" fill="white" opacity="0.9"/><rect x="275.55555555555554" y="210" width="8.88888888888889" height="20" fill="white" opacity="0.9"/><rect x="293.3333333333333" y="210" width="8.88888888888889" height="20" fill="white" opacity="0.9"/><rect x="311.1111111111111" y="210" width="8.88888888888889" height="20" fill="white" opacity="0.9"/>
      <text x="280" y="185" font-family="Arial,sans-serif" font-size="11" fill="#1a1a1a" text-anchor="middle" font-weight="bold">Övergångsställe</text>
      <!-- Distance 10m before -->
      <line x1="155" y1="185" x2="238" y2="185" stroke="#f4d35e" stroke-width="2.5" stroke-dasharray="5,3"/>
      <line x1="155" y1="180" x2="155" y2="190" stroke="#f4d35e" stroke-width="2.5"/>
      <line x1="238" y1="180" x2="238" y2="190" stroke="#f4d35e" stroke-width="2.5"/>
      <text x="196" y="178" font-family="Arial,sans-serif" font-size="14" fill="#f4d35e" text-anchor="middle" font-weight="bold">10 m</text>
      <!-- Parked car (forbidden zone) -->
      <g transform="rotate(90,110,188)">
  <rect x="99" y="170" width="22" height="36" rx="5" ry="5" fill="#e63946" />
  <rect x="102" y="174" width="16" height="7" rx="2" fill="rgba(255,255,255,0.4)" />
</g>
      <!-- No parking -->
      <circle cx="110" cy="145" r="15" fill="white" stroke="red" stroke-width="3"/>
      <line x1="99" y1="134" x2="121" y2="156" stroke="red" stroke-width="3"/>
      <!-- Pedestrians -->
      <circle cx="265" cy="210" r="5" fill="#f4a261"/>
<line x1="265" y1="215" x2="265" y2="230" stroke="#f4a261" stroke-width="3"/>
<line x1="258" y1="222" x2="272" y2="222" stroke="#f4a261" stroke-width="3"/>
<line x1="265" y1="230" x2="259" y2="242" stroke="#f4a261" stroke-width="3"/>
<line x1="265" y1="230" x2="271" y2="242" stroke="#f4a261" stroke-width="3"/>
      <circle cx="285" cy="210" r="5" fill="#f4a261"/>
<line x1="285" y1="215" x2="285" y2="230" stroke="#f4a261" stroke-width="3"/>
<line x1="278" y1="222" x2="292" y2="222" stroke="#f4a261" stroke-width="3"/>
<line x1="285" y1="230" x2="279" y2="242" stroke="#f4a261" stroke-width="3"/>
<line x1="285" y1="230" x2="291" y2="242" stroke="#f4a261" stroke-width="3"/>
      <text x="200" y="390" font-family="Arial,sans-serif" font-size="11" fill="#1a1a1a" text-anchor="middle" font-weight="bold">Parkering förbjuden 10 m FÖRE övergångsställe (sikt!)</text>
    
</svg>