<svg xmlns="http://www.w3.org/2000/svg" viewBox="0 0 400 400" width="400" height="400" style="background:#f0f0f0">

      
  <rect x="145" y="145" width="110" height="110" fill="#6b6b6b"/>
  <rect x="0" y="145" width="400" height="110" fill="#6b6b6b"/>
<line x1="0" y1="200" x2="400" y2="200" stroke="#ffffff" stroke-width="2" stroke-dasharray="18,12"/>
  <rect x="145" y="0" width="110" height="400" fill="#6b6b6b"/>
<line x1="200" y1="0" x2="200" y2="400" stroke="#ffffff" stroke-width="2" stroke-dasharray="18,12"/>
  
      <!-- Your car: from south going north -->
      <g transform="rotate(0,218,290)">
  <rect x="207" y="272" width="22" height="36" rx="5" ry="5" fill="#e63946" />
  <rect x="210" y="276" width="16" height="7" rx="2" fill="rgba(255,255,255,0.4)" />
</g>
      <line x1="218" y1="272" x2="218" y2="132" stroke="#e63946" stroke-width="2.5" stroke-linecap="round"/>
<polygon points="218,120 224,132 212,132" fill="#e63946"/>
      <!-- Car A: from east (to your left) going west -->
      <g transform="rotate(270,290,182)">
  <rect x="279" y="164" width="22" height="36" rx="5" ry="5" fill="#888888" />
  <rect x="282" y="168" width="16" height="7" rx="2" fill="rgba(255,255,255,0.4)" />
</g>
      <line x1="272" y1="182" x2="132" y2="182" stroke="#888888" stroke-width="2.5" stroke-linecap="round"/>
<polygon points="120,182 132,176 132,188" fill="#888888"/>
      <!-- Car B: from west (to your right) going east -->
      <g transform="rotate(90,110,218)">
  <rect x="99" y="200" width="22" height="36" rx="5" ry="5" fill="#1d7dc1" />
  <rect x="102" y="204" width="16" height="7" rx="2" fill="rgba(255,255,255,0.4)" />
</g>
      <line x1="128" y1="218" x2="268" y2="218" stroke="#1d7dc1" stroke-width="2.5" stroke-linecap="round"/>
<polygon points="280,218 268,224 268,212" fill="#1d7dc1"/>
      <!-- B has priority (to your right) -->
      <circle cx="110" cy="185" r="14" fill="#f4d35e" opacity="0.9"/>
      <text x="110" y="190" font-family="Arial,sans-serif" font-size="16" fill="#1a1a1a" text-anchor="middle" font-weight="bold">✓</text>
      <text x="218" y="330" font-family="Arial,sans-serif" font-size="12" fill="#e63946" text-anchor="middle" font-weight="bold">DU</text>
      <text x="315" y="182" font-family="Arial,sans-serif" font-size="10" fill="#888888" text-anchor="start" font-weight="bold">A (vänster)</text>
      <text x="85" y="218" font-family="Arial,sans-serif" font-size="10" fill="#1d7dc1" text-anchor="end" font-weight="bold">B (höger)</text>
    
</svg>
